<svg version="1.1" xmlns="http://www.w3.org/2000/svg" xmlns:xlink="http://www.w3.org/1999/xlink" viewBox="0 0 150 150"><g fill="#262626"><path d="M6,74l9.4-9.4l14.9,14.9l0.1-0.1l0.1,0.1l4.4-4.4L19.6,59.8c-0.8-0.8-1.8-1.1-2.9-1.1c-1.3,0-2.7,0.5-3.6,1.3L1.4,71.7l0,0c0,0-0.1,0.1-0.1,0.1c-1.5,1.5-1.9,4.6-0.2,6.3l15.3,15.3l0.1-0.1l0.1,0.1L21,89L6,74z"/><path d="M39.3,109.6L39.3,109.6l4.7-4.7l0,0c1.4-1.5,1.8-4.6,0.1-6.3c0,0,0,0,0,0l0,0L32.3,86.7L35,84l14.3,14.3l4.4-4.4L39.1,79.3c0,0,0,0,0,0c0,0,0,0,0,0L39,79.2l0,0c-1.7-1.6-4.8-1.2-6.2,0.3c0,0,0,0.1-0.1,0.1l0,0l-5,5l0,0c-1.4,1.5-1.7,4.4-0.2,6.1l0,0l12,12l-2.4,2.4L22.7,90.8l-4.4,4.4L33,109.9l0,0C34.8,111.5,37.8,111.1,39.3,109.6C39.3,109.6,39.3,109.6,39.3,109.6z"/><path d="M58.9,129.1L58.9,129.1l4.7-4.7c0,0,0,0,0,0c0,0,0,0,0,0l0.1-0.1l0,0c1.4-1.5,1.8-4.6,0.1-6.3c0,0,0,0,0,0l0,0l-11.8-11.8l2.7-2.7l14.3,14.3l4.4-4.4L58.8,98.8c0,0,0,0,0,0c0,0,0,0,0,0l-0.1-0.1l0,0c-1.7-1.6-4.8-1.2-6.2,0.3c0,0,0,0.1-0.1,0.1l0,0l-5,5c0,0,0,0,0,0c0,0,0,0,0,0l-0.1,0.1l0,0c-1.4,1.5-1.7,4.4-0.2,6.1l0,0l0.1,0.1c0,0,0,0,0,0c0,0,0,0,0,0l11.8,11.8l-2.4,2.4l-14.3-14.3l-4.4,4.4l14.7,14.7l0,0C54.4,131,57.4,130.6,58.9,129.1C58.9,129.1,58.9,129.1,58.9,129.1z"/><path d="M89.1,129.3L89.1,129.3l-15,14.8l-9.5-9.5l15-15l-4.4-4.4l-0.1,0.1l-0.1-0.1l-15.3,15.3c-1.7,1.7-1.3,4.9,0.2,6.3l11.7,11.7l0,0c0,0,0.1,0.1,0.1,0.1c0.8,0.8,2.2,1.3,3.6,1.3c1.1,0,2.1-0.3,2.9-1.1l15.3-15.3L89.1,129.3L89.1,129.3z"/><path d="M40.3,39.1C40.4,39.2,40.4,39.2,40.3,39.1L40.3,39.1l4.8,4.8l0,0c1.5,1.4,4.6,1.8,6.3,0.1c0,0,0,0,0,0l0,0l11.8-11.8l2.7,2.7L51.7,49.2l4.4,4.4l14.7-14.7l0,0c1.6-1.7,1.2-4.8-0.3-6.2c0,0-0.1,0-0.1-0.1l0,0l-5-5l0,0c-1.5-1.4-4.4-1.7-6.1-0.2l0,0l-12,12l-2.4-2.4l14.3-14.3l-4.4-4.4L40.1,32.9l0,0C38.5,34.6,38.9,37.7,40.3,39.1z"/><path d="M20.9,58.7C20.9,58.8,20.9,58.8,20.9,58.7L20.9,58.7l4.7,4.7c0,0,0,0,0,0c0,0,0,0,0,0l0.1,0.1l0,0c1.5,1.4,4.6,1.8,6.3,0.1c0,0,0,0,0,0l0,0l11.8-11.8l2.7,2.7L32.2,68.8l4.4,4.4l14.7-14.7l0,0c1.6-1.7,1.2-4.8-0.3-6.2c0,0-0.1,0-0.1-0.1l0,0l-5-5l0,0c-1.5-1.4-4.4-1.7-6.1-0.2l0,0l-0.1,0.1c0,0,0,0,0,0c0,0,0,0,0,0L27.8,58.9l-2.4-2.4l14.3-14.3l-4.4-4.4L20.7,52.4l-0.1,0.1l0,0C19,54.2,19.4,57.3,20.9,58.7z"/><path d="M110.7,40.4L110.7,40.4l-4.7,4.7l-0.1,0.1l0,0c-1.4,1.5-1.8,4.6-0.1,6.3c0,0,0,0,0,0l0,0l11.8,11.8L115,66l-14.3-14.3l-4.4,4.4L111,70.8l0,0c1.7,1.6,4.8,1.2,6.2-0.3c0,0,0-0.1,0.1-0.1l0,0l5-5c0,0,0,0,0,0c0,0,0,0,0,0l0.1-0.1l0,0c1.4-1.5,1.7-4.4,0.2-6.1l0,0l-12-12l2.4-2.4l14.3,14.3l4.4-4.4l-14.6-14.6c0,0,0,0,0,0c0,0,0,0,0,0l-0.1-0.1l0,0C115.2,38.5,112.2,38.9,110.7,40.4C110.7,40.4,110.7,40.4,110.7,40.4z"/><path d="M91.1,20.9L91.1,20.9l-4.7,4.7l0,0c-1.4,1.5-1.8,4.6-0.1,6.3c0,0,0,0,0,0l0,0l11.8,11.8l-2.7,2.7L81.1,32.2l-4.4,4.4l14.7,14.7l0,0c1.7,1.6,4.8,1.2,6.2-0.3c0,0,0-0.1,0.1-0.1l0,0l5-5l0,0c1.4-1.5,1.7-4.4,0.2-6.1l0,0l-12-12l2.4-2.4l14.3,14.3l4.4-4.4L97.5,20.7c0,0,0,0,0,0c0,0,0,0,0,0l-0.1-0.1l0,0C95.6,19,92.6,19.4,91.1,20.9C91.1,20.9,91.1,20.9,91.1,20.9z"/><path d="M60.9,20.7L60.9,20.7l15-14.8l9.5,9.5l-15,15l4.4,4.4l0.1-0.1l0.1,0.1l15.3-15.3c1.7-1.7,1.3-4.9-0.2-6.3L78.3,1.4l0,0c0,0-0.1-0.1-0.1-0.1C77.4,0.5,76,0,74.6,0c-1.1,0-2.1,0.3-2.9,1.1L56.4,16.4L60.9,20.7L60.9,20.7z"/><path d="M109.6,110.9C109.6,110.8,109.6,110.8,109.6,110.9L109.6,110.9l-4.7-4.7c0,0,0,0,0,0c0,0,0,0,0,0l-0.1-0.1l0,0c-1.5-1.4-4.6-1.8-6.3-0.1c0,0,0,0,0,0l0,0l-11.8,11.8l-2.7-2.7l14.3-14.3l-4.4-4.4L79.3,111c0,0,0,0,0,0c0,0,0,0,0,0l-0.1,0.1l0,0c-1.6,1.7-1.2,4.8,0.3,6.2c0,0,0.1,0,0.1,0.1l0,0l5,5l0,0c1.5,1.4,4.4,1.7,6.1,0.2l0,0l12-12l2.4,2.4l-14.3,14.3l4.4,4.4l14.6-14.6c0,0,0,0,0,0c0,0,0,0,0,0l0.1-0.1l0,0C111.5,115.4,111.1,112.3,109.6,110.9z"/><path d="M129.1,91.3C129.1,91.2,129.1,91.2,129.1,91.3L129.1,91.3l-4.8-4.8l0,0c-1.5-1.4-4.6-1.8-6.3-0.1c0,0,0,0,0,0l0,0l-11.8,11.8l-2.7-2.7l14.3-14.3l-4.4-4.4L98.8,91.4c0,0,0,0,0,0c0,0,0,0,0,0l-0.1,0.1l0,0c-1.6,1.7-1.2,4.8,0.3,6.2c0,0,0.1,0,0.1,0.1l0,0l5,5c0,0,0,0,0,0c0,0,0,0,0,0l0.1,0.1l0,0c1.5,1.4,4.4,1.7,6.1,0.2l0,0l0.1-0.1c0,0,0,0,0,0c0,0,0,0,0,0l11.8-11.8l2.4,2.4l-14.3,14.3l4.4,4.4l14.6-14.6c0,0,0,0,0,0c0,0,0,0,0,0l0.1-0.1l0,0C131,95.8,130.6,92.7,129.1,91.3z"/><path d="M148.9,71.9l-15.3-15.3l-0.1,0.1l-0.1-0.1L129,61l15,15l-9.4,9.4l-14.9-14.9l-0.1,0.1l-0.1-0.1l-4.4,4.4l15.3,15.3c0.8,0.8,1.8,1.1,2.9,1.1c1.3,0,2.7-0.5,3.6-1.3l11.7-11.7l0,0c0,0,0.1-0.1,0.1-0.1C150.2,76.7,150.6,73.6,148.9,71.9z"/></g></svg>
