<svg version="1.1" xmlns="http://www.w3.org/2000/svg" xmlns:xlink="http://www.w3.org/1999/xlink" viewBox="0 0 580.2 26.6"><g fill="#fff"><path d="M349.5,0.3c-3.7,0.4-4.5,0.4-8.6,0.4l-4.3-0.1l-4.5-0.1l-1.5,0.1l-1.1,0.1l0,0.2v0.9l0.2,0c1.1,0.1,2.2,0.2,2.6,0.8c0.7,1,0.7,2,0.7,10.8c0,4.2-0.4,8.9-0.5,9.6c-0.2,1-1.6,1.3-2.6,1.5l-0.2,0l-0.1,1.3l0.2,0c2.5-0.2,5.2-0.2,5.9-0.2l2.2,0.1c0,0,4.1,0.2,4.1,0.2v-0.2v-1.2l-0.3,0c-2.9-0.3-3.9-0.8-4.2-1.1c-0.3-0.4-0.4-1.9-0.4-3.5c0-0.5,0-0.9,0-1.4c0,0,0.1-3.7,0.1-4.6c0.3,0,2.1-0.1,2.1-0.1c2.3,0,5.1,0.5,5.9,0.8c0.4,0.1,0.7,0.9,0.9,2.1l0,0.2h1.3l0-0.2c0.2-2.6,0.2-5.2,0.1-7.1l0-0.2h-1.3l0,0.2c-0.3,1.8-0.4,2.6-5.4,2.6c-1.5,0-1.9-0.1-3.4-0.2c0,0-0.1,0-0.1,0c0-0.4-0.1-0.9-0.1-1.4c0-0.6,0-1.2,0-1.8c0,0,0.1-5.2,0.1-6c1.4-0.2,2.7-0.2,3-0.2c2.7,0,5.2,0.5,6.2,1.3c0.8,0.6,1.1,1.6,1.3,2.5l0,0.2l1.4-0.1l0-0.2c0-0.4,0-1.8,0.1-3l0.1-2.7L349.5,0.3z M311,0.1c8.4,0,13.3,6.5,13.3,12.9c0,7.1-6.3,13.1-13.7,13.1c-7.3,0-13-5.8-13-13.1C297.6,6.2,303.8,0.1,311,0.1 M312.3,24.1c4.6,0,7.5-4.5,7.5-8.7c0-6.5-3.8-13.3-10.1-13.3c-5,0-7.7,4.4-7.7,8.8C302.1,17.4,305.9,24.1,312.3,24.1 M264.9,0.7v1.2l0.3,0c1.3,0.1,3,0.1,3,1.1c0,0.3-0.5,1.8-5.3,8.6c-2.1-2.4-6.6-8.2-6.6-9c0-0.3,0-0.6,2.9-0.7l0.2,0V0.6l-2.4,0l-4.7,0.1l-5-0.1v0.2V2h0.2c1.3,0,2,0.2,2.6,0.6c1.5,1.1,7,7.9,7.2,8.2c0,0,2.2,2.8,2.4,3c0.1,1.8,0.2,3.8,0.2,6.2c0,3.8,0,4.5-3.5,4.6l-0.2,0l-0.1,1.3l0.2,0c0.5,0,2.1-0.1,3.7-0.2l2.7-0.2l2,0.1l0.4,0l2.8,0.1l0-0.2v-1l-0.2,0c-3.5-0.3-3.5-0.7-3.6-1.4v-0.3c-0.1-1.5-0.1-3.3-0.1-5.1c0-1.4,0-2.9,0.1-4.5c0.1-0.1,5-7.5,5-7.5c1.6-2.4,1.2-3.7,4.6-3.8l0.2,0V0.5l-0.2,0c-0.4,0-0.6,0-1.8,0.1l-1.6,0.1l-1.9-0.1L267,0.5c0,0-1.9-0.1-1.9-0.1h-0.2L264.9,0.7L264.9,0.7z M242.5-0.1h-0.8L241.6,0c-0.1,0.2-0.4,0.5-1.7,0.5l-5.1,0.1h-7.1l-5.6-0.1c-1.3-0.1-1.6-0.4-1.7-0.5l-0.1-0.1h-0.9l0,0.1c-0.1,0.3-1.8,4.7-1.9,5l-0.1,0.2l1.2,0.7l0.1-0.2c0.8-2.1,1.6-3.1,6.1-3.1c1.4,0,2.6,0.1,3.4,0.2c0.3,3.4,0.3,6.7,0.3,9.1c0,2.4-0.1,9.4-0.3,10.9c-0.1,0.5-0.3,0.9-2.4,1.3c0,0-1.6,0.2-1.6,0.2l-0.6,0.1l0.3,1.4l2.1-0.1l0.6,0l4.1-0.1l0.6,0l2.3,0l1.7,0.1l1.8,0.1l0-0.2l0.2-1.3l-1.2-0.1l-0.3,0c-1.1-0.1-1.9-0.4-2.2-0.7c-0.3-0.3-0.8-1.9-0.8-9.2l0.1-5.2l0.1-5.9c0-0.5,0-0.5,2.3-0.5l0.1,0l1.4,0h0.3c4.1,0,4.4,0.8,5.1,2.7l0.2,0.6l1.2-0.7l-0.3-1.3c-0.4-2-0.7-3.6-0.8-3.8l0-0.1H242.5L242.5-0.1z M200.1,0.7V2l0.2,0c3.3,0.1,3.9,0.8,4.1,1.5c0.5,1.1,0.6,8.2,0.6,10.9v0.4c0,2.2,0,7.2-0.7,8.4c-0.2,0.4-1.1,1.1-4.3,1.3l-0.2,0v1.3l4-0.1h3.7l6.1,0.2l0-0.2l-0.1-1.2h-0.2c-2.7,0-3.6,0-3.9-1.1c-0.2-0.5-0.2-2.9-0.2-7.1c0-9.8,0.1-12.4,0.6-13.3c0.7-1.1,3-0.9,3.7-0.9l0.2,0V0.6h-3c0,0-4.2,0.1-4.2,0.1l-2.8-0.1l-1.2,0l-2.2-0.1l-0.2,0L200.1,0.7L200.1,0.7z M177.6,7.4c0,4.3,3.7,5.8,6.4,6.9l0.2,0.1c4.6,1.9,6.7,2.7,6.7,5.8c0,1.9-1.4,3.9-4.5,3.9c-2.7,0-4.7-1.1-5.9-2.1c-1.4-1.2-1.8-3-1.9-3.6l0-0.2h-1.5l0.1,0.3c0.8,2.8,1.1,4,1.1,7.1v0.2l1.2,0.1l0.1-0.1c0.1-0.1,0.3-0.6,0.6-0.6c0.3,0,1.2,0.2,1.6,0.3l0.2,0l0.4,0.1c0.6,0.2,1.5,0.5,3.1,0.5c6.2,0,9.5-3.7,9.5-7.2c0-4.9-4.9-6.8-8.2-8.1c-3.1-1.2-5.4-2.3-5.4-4.7c0-2.5,1.9-4.1,4.7-4.1c2.6,0,4.4,1.4,4.8,1.9c1,0.9,1.3,2,1.5,3.1l0,0.2l0.2,0.1h1.1l-0.3-3.3c0-1.2,0.2-2.5,0.4-3l0-0.2l-1.1-0.2c0,0-0.7,0.5-0.8,0.5c-2.3-0.6-3.5-0.8-5.1-0.8C181.3,0.3,177.6,3.2,177.6,7.4 M159.7,0.3c5.3,0,9,2.8,9,6.8c0,3.3-2.9,5.5-5.6,6.3c5.1,7.1,6,8.2,8.1,10.1c0.1,0.1,1.7,1.6,3.7,1.7l0.2,0l-0.1,1.3h-0.2c-4.4,0-6.6-1.7-7.8-2.6c-3.9-3-7.7-8.7-8.4-10c-0.2,0-2.7-0.1-3-0.1v3.3c0,0,0,0.9,0,1.1c0,1.7,0,4.2,0.4,4.9c0.3,0.5,2.3,1.1,3.4,1.4l0.1,0l0.1,1.3l-0.3,0c-1.5-0.2-3.9-0.4-5.6-0.4c-0.9,0-4.8,0.2-5.6,0.3l-0.2,0l-0.3-1.1l0.2,0c0.5-0.1,2.6-0.6,3.1-1.5c0.4-0.8,0.4-5.2,0.4-7.1v-0.6V9.7c0-7.5-0.3-7.5-3.4-7.7l-0.2,0l0.1-1.5l0.4,0c0,0,2.2,0.1,2.2,0.1l2.3,0.1c0.6,0,2-0.1,3.5-0.2L159.7,0.3z M155.6,12.1c0.8,0.1,1.8,0.1,2.5,0.1c2.3,0,6.1-0.6,6.1-4.7c0-2.2-1.6-5.4-6-5.4c-2.5,0-2.5,0.1-2.5,4.3C155.6,6.4,155.6,11.7,155.6,12.1 M140,0.4c-3.1,0.2-8,0.2-11.3,0.2c-2,0-6.9-0.1-8.8-0.2l-0.2,0v1.3l0.2,0c2.2,0.4,2.3,0.4,2.4,0.9c0.2,0.6,0.5,2.9,0.5,10.5c0,3.2-0.3,8.4-0.6,10.1c-0.2,0.9-1.2,1.1-2.9,1.3l-0.2,0l0.2,1.4l0.2,0c3.4-0.4,7.5-0.4,10-0.4l10.1,0.1l0.1-0.2c0.5-0.8,1.3-2.1,1.9-6.1l0-0.2l-1.2-0.1l-0.1,0.1c-0.9,2.3-2.6,4.7-8.7,4.7c-2.2,0-3.1-0.3-4.3-0.7c-0.1-0.7-0.2-1.8-0.3-4.8c0,0,0-3.8-0.1-4.6c1.6-0.2,3.1-0.2,3.8-0.2c5,0,5.3,0.4,6,3.4l0,0.2h1.2v-0.2c-0.1-3.3-0.1-4.1,0.1-7.6l0-0.2h-1.3l0,0.2c-0.5,1.8-0.9,2.2-1.6,2.3c-3.6,0.5-7.2,0.3-8,0.3c0-0.3-0.1-3.3-0.1-3.3c0-1.6,0.1-4.1,0.4-5.9c1.3-0.2,3.8-0.5,4.9-0.5c2.8,0,4.5,0.4,5.2,1.1c0.6,0.6,0.6,1.6,0.6,2.6l0,0.2l1.4,0.2V6.1c0-0.3,0.2-1.3,0.3-2l0.1-0.9c0.2-1.3,0.2-1.9,0.2-2.5V0.4L140,0.4z M85,0.7l0.1,1.1l0.2,0c3.4,0.4,3.5,0.4,6.3,6c0,0,5.7,11.5,5.7,11.5c0,0,0,0.1,0,0.1c1,2,2.4,5,2.9,6.7l0,0.2h1.3l0.1-0.1c0.9-2.5,1.5-4.2,3.5-8.2l6.2-11.9c1.4-2.8,2-3.5,4.8-4.1l0.2,0V0.7l-0.2,0c-1.6,0.1-3.1,0.1-4.7,0c0,0-4.8-0.1-4.8-0.1l0,0.2L106.4,2l0.2,0c1.3,0,3,0.2,3,1.5c0,0.7-0.6,2-0.9,2.8l-0.1,0.2c-1.3,2.8-2.1,4.3-2.9,6l-2.8,5.7c0,0-0.4,0.9-0.7,1.4c-2.8-4.4-7.8-16.2-7.8-16.9c0-0.3,0.1-0.3,2.1-0.6l0.6-0.1V0.7l-3.9,0l-2.1,0c-1.5,0-4.4-0.1-5.9-0.2l-0.2,0L85,0.7z M67.9,0.7V2l0.2,0c3.3,0.1,3.9,0.8,4.1,1.5c0.5,1.1,0.6,8.2,0.6,10.9v0.4c0,2.2,0,7.2-0.7,8.4c-0.2,0.4-1.1,1.1-4.3,1.3l-0.2,0v1.3l4-0.1h3.7l6.1,0.2l0-0.2l-0.1-1.2h-0.2c-2.7,0-3.5,0-3.9-1.1c-0.2-0.5-0.2-2.9-0.2-7.1c0-9.8,0.1-12.4,0.6-13.3c0.7-1.1,3-0.9,3.7-0.9l0.2,0V0.6h-3c0,0-4.3,0.1-4.3,0.1l-2.8-0.1l-1.2,0l-2.2-0.1l-0.2,0L67.9,0.7L67.9,0.7z M55.2,0.3c0,0,2.1,0.1,2.7,0.2c0.6,0,2.5,0.1,5.3,0.1h0.2v1.3h-0.2c-1.4,0-2.8,0.3-3.1,2c-0.2,1-0.3,8.9-0.3,12.2c0,2.3,0,7.5,0.1,9.5l0,0.2l-1.6,0l-0.1-0.1L40,7c0,0.6,0,1.5,0,1.5l-0.1,10.4c-0.1,4.1-0.1,4.6,4.7,5.4l0.2,0v1.2l0,0.2c0,0-2-0.1-2-0.1L40,25.5l-5.9,0.3v-1.1l0-0.2c0,0,1.6-0.3,1.6-0.3c0.9-0.2,1.5-0.3,1.6-1.7c0.2-1.4,0.4-6.3,0.4-7.9l0.1-4.4c0.1-7.1-0.4-7.5-3.9-8.1l-0.2,0l0-1.2l0-0.2l1.8,0.1l1.9,0.1l2.8-0.1l0.1,0.1c0,0,17.1,17.8,17.4,18.1c0-0.7,0-6.7,0-6.7C57.5,2,58.3,1.9,53.4,1.6l-0.2,0l0.3-1.2C53.6,0.3,55.2,0.3,55.2,0.3 M12.1,0.5l0.2,0v1.4l-0.2,0C8.2,2.3,7.9,2.3,7.9,11v4.7c0,2.7,0,8.3,7.1,8.3c7.9,0,8.4-5.1,8.4-13.4V8.5c0-1.7-0.2-5-1-5.8C21.9,2.1,20.7,2,19.4,2h-0.2V0.8l0-0.2l1.5,0l3.4,0.1l4.4-0.1l0.6,0L29,2l-0.2,0c-2.9,0.2-3,0.9-3,2.7l0,0.2l-0.1,3.6c-0.2,12-0.8,17.8-11.7,17.8c-6.9,0-10.6-3-10.6-8.6l0.3-8.2c0-3.8-0.4-6.7-0.9-7C2.5,2.1,1.9,2.1,0.3,2.1H0.1L0,0.7l0.2,0c0.5-0.1,4-0.1,5.7-0.1l1.5,0C9,0.5,11.2,0.5,12.1,0.5"/><path d="M553.6,13.2c0,7.4,5.7,13.3,12.9,13.3c7.4,0,13.7-6.1,13.7-13.3c0-6.4-5-13-13.3-13C559.8,0.2,553.6,6.3,553.6,13.2 M558.1,11.1c0-4.4,2.6-8.9,7.6-8.9c6.3,0,10.1,6.8,10.1,13.4c0,4.2-2.9,8.8-7.5,8.8C561.9,24.4,558.1,17.7,558.1,11.1 M549.7,0h-0.8l-0.1,0.1c-0.1,0.2-0.4,0.5-1.7,0.5l-5.1,0.1H535l-5.6-0.1c-1.3-0.1-1.6-0.4-1.7-0.5L527.6,0h-0.9l0,0.1c-0.1,0.3-1.9,4.8-1.9,5l0,0.2l1.2,0.7l0.1-0.2c0.8-2.1,1.6-3.1,6.1-3.1c1.4,0,2.6,0.1,3.4,0.2c0.3,3.4,0.3,6.7,0.3,9.2c0,2.4-0.1,9.5-0.3,11c-0.1,0.6-0.3,0.9-2.4,1.3l-1.6,0.2l-0.6,0.1l0.3,1.4l2.1-0.1l0.6,0l4.1-0.1l0.6,0l2.2,0l1.7,0.1l1.8,0.1l0-0.2l0.1-1.3l-1.1-0.1l-0.3,0c-1.1-0.1-1.9-0.4-2.2-0.7c-0.3-0.3-0.8-2-0.8-9.3l0.1-5.2l0.1-5.9c0-0.5,0-0.5,2.3-0.5l0.1,0l1.4,0h0.3c4.1,0,4.4,0.9,5.1,2.7l0.2,0.6l1.2-0.7L550.7,4c-0.4-2-0.7-3.6-0.8-3.9L549.8,0L549.7,0L549.7,0L549.7,0z M512.7,0.4c0,0,2,0.1,2.6,0.2c0.6,0,2.5,0.1,5.3,0.1h0.2V2h-0.2c-1.4,0-2.8,0.3-3.1,2c-0.2,1-0.3,8.9-0.3,12.3c0,2.3,0,7.6,0.1,9.6l0,0.2l-1.6,0l-0.1-0.1l-18.1-19c0,0.6,0,1.5,0,1.5L497.4,19c-0.1,4.1-0.1,4.7,4.7,5.5l0.2,0v1.2l0,0.2c0,0-1.9-0.1-1.9-0.1l-2.8-0.1l-5.8,0.3v-1.2v-0.2c0,0,1.6-0.3,1.6-0.4c0.9-0.2,1.4-0.3,1.6-1.7c0.2-1.4,0.4-6.4,0.4-8l0.1-4.4c0.1-7.2-0.4-7.6-3.9-8.2l-0.2,0l0-1.2l0-0.2l1.8,0.1l1.9,0.1l2.8-0.1l0.1,0.1c0,0,17.1,18,17.4,18.3c0-0.7-0.1-6.8-0.1-6.8C515,2.1,515.7,2,510.9,1.7l-0.2,0l0.3-1.3C511.1,0.4,512.7,0.4,512.7,0.4 M473.6,0.2c8.3,0,13.3,6.6,13.3,13c0,7.2-6.3,13.2-13.7,13.2c-7.3,0-12.9-5.8-12.9-13.2C460.3,6.3,466.5,0.2,473.6,0.2 M474.9,24.4c4.6,0,7.5-4.6,7.5-8.8c0-6.6-3.8-13.4-10.1-13.4c-5,0-7.7,4.5-7.7,8.9C464.7,17.7,468.5,24.4,474.9,24.4 M443.8,0.4c5.3,0,9,2.8,9,6.9c0,3.3-2.9,5.5-5.6,6.3c5.1,7.2,6,8.3,8,10.2c0.1,0.1,1.7,1.6,3.7,1.7l0.2,0l-0.1,1.3h-0.2c-4.4,0-6.6-1.7-7.8-2.6c-3.8-3-7.6-8.8-8.3-10.1c-0.2,0-2.7-0.1-3-0.1v3.4v1.2c0,1.7,0,4.2,0.4,4.9c0.3,0.5,2.3,1.1,3.4,1.4l0.1,0l0.1,1.3l-0.3,0c-1.5-0.3-3.9-0.4-5.5-0.4c-0.9,0-4.8,0.2-5.6,0.3l-0.2,0l-0.3-1.1l0.2,0c0.5-0.1,2.6-0.6,3.1-1.5c0.4-0.8,0.4-5.2,0.4-7.1v-0.6v-6c0-7.6-0.3-7.6-3.4-7.8l-0.2,0l0.1-1.5l0.4,0c0,0,2.2,0.1,2.2,0.1l2.3,0.1c0.6,0,2-0.1,3.5-0.3L443.8,0.4z M439.7,12.3c0.7,0.1,1.8,0.1,2.5,0.1c2.3,0,6.1-0.6,6.1-4.8c0-2.2-1.6-5.4-6-5.4c-2.4,0-2.4,0.1-2.5,4.3C439.7,6.5,439.7,11.9,439.7,12.3 M413.8,0.2c8.3,0,13.3,6.6,13.3,13c0,7.2-6.3,13.2-13.7,13.2c-7.3,0-12.9-5.8-12.9-13.2C400.5,6.3,406.7,0.2,413.8,0.2 M415.1,24.4c4.6,0,7.5-4.6,7.5-8.8c0-6.6-3.8-13.4-10-13.4c-5,0-7.6,4.5-7.6,8.9C405,17.7,408.8,24.4,415.1,24.4 M396.6,0h-0.8l-0.1,0.1c-0.1,0.2-0.4,0.5-1.7,0.5L389,0.7h-7.1l-5.6-0.1c-1.3-0.1-1.5-0.4-1.7-0.5L374.6,0h-0.9l0,0.1c-0.1,0.3-1.8,4.8-1.9,5l0,0.2l1.2,0.7l0.1-0.2c0.8-2.1,1.7-3.1,6.1-3.1c1.4,0,2.6,0.1,3.4,0.2c0.3,3.4,0.3,6.7,0.3,9.2c0,2.4-0.1,9.5-0.3,11c-0.1,0.6-0.3,0.9-2.4,1.3l-1.6,0.2l-0.6,0.1l0.3,1.4l2.1-0.1l0.6,0l4.1-0.1l0.7,0l2.3,0l1.7,0.1l1.8,0.1l0-0.2l0.2-1.3l-1.1-0.1l-0.3,0c-1.1-0.1-1.9-0.4-2.2-0.7c-0.3-0.3-0.7-2-0.7-9.3l0.1-5.2l0.1-5.9c0-0.5,0-0.5,2.3-0.5l0.1,0l1.4,0h0.3c4.1,0,4.4,0.9,5.1,2.7l0.2,0.6l1.2-0.7L397.6,4c-0.4-2-0.7-3.6-0.8-3.9L396.8,0H396.6L396.6,0z"/></g></svg>
